<?xml version="1.0" standalone="no"?>
<!DOCTYPE svg PUBLIC "-//W3C//DTD SVG 20010904//EN"
 "http://www.w3.org/TR/2001/REC-SVG-20010904/DTD/svg10.dtd">
<svg version="1.0" xmlns="http://www.w3.org/2000/svg"
 width="612.000000pt" height="612.000000pt" viewBox="0 0 612.000000 612.000000"
 preserveAspectRatio="xMidYMid meet">

<g transform="translate(0.000000,612.000000) scale(0.100000,-0.100000)"
fill="#000000" stroke="none">
<path d="M1735 4764 c-101 -8 -214 -25 -264 -40 -54 -16 -81 -48 -81 -97 0
-17 -12 -32 -39 -50 -61 -40 -147 -134 -206 -222 -141 -214 -255 -517 -386
-1031 -135 -532 -163 -714 -163 -1069 -1 -263 5 -320 50 -494 109 -420 441
-539 706 -252 66 71 129 162 253 366 155 256 232 354 323 415 l45 30 57 -54
c154 -147 378 -178 572 -80 67 34 168 135 202 202 l26 52 230 0 229 0 32 -60
c80 -151 251 -250 428 -250 135 0 245 44 341 136 l57 54 46 -31 c95 -63 168
-159 347 -454 195 -322 294 -427 446 -471 197 -57 382 76 472 341 90 265 94
717 11 1153 -62 328 -226 917 -320 1155 -107 267 -241 466 -380 563 -27 18
-39 34 -39 51 0 13 -7 37 -15 53 -29 57 -190 84 -505 84 -247 1 -280 -6 -318
-65 l-23 -35 -297 -35 c-414 -48 -610 -48 -1024 0 l-297 35 -23 35 c-35 54
-75 63 -273 66 -93 1 -192 1 -220 -1z m1441 -492 c83 -42 136 -128 138 -222 2
-155 -122 -270 -279 -258 -109 9 -190 77 -221 186 -37 125 35 261 163 308 51
19 148 12 199 -14z m-1355 -58 c81 -24 121 -48 189 -110 103 -96 151 -203 151
-341 1 -140 -42 -245 -141 -344 -246 -248 -685 -136 -784 200 -34 115 -13 286
47 383 57 94 160 175 267 209 71 23 199 24 271 3z m2619 -9 c56 -29 77 -113
44 -176 -23 -45 -91 -73 -143 -59 -102 27 -131 156 -50 225 36 29 103 34 149
10z m-76 -263 c42 -3 57 1 89 22 39 27 43 26 27 -5 -37 -69 -181 -61 -221 12
l-11 22 32 -23 c21 -15 52 -25 84 -28z m-210 -33 c81 -64 70 -187 -21 -225
-107 -45 -221 74 -169 175 35 67 135 93 190 50z m576 6 c74 -38 85 -154 19
-209 -85 -72 -213 -13 -212 97 2 77 51 126 126 127 21 0 51 -7 67 -15z m-3571
-400 c48 -135 122 -217 347 -386 94 -71 198 -158 232 -193 99 -106 163 -266
161 -401 l-1 -50 -14 66 c-27 138 -105 281 -198 367 -29 26 -114 92 -190 147
-284 205 -387 362 -385 585 l1 85 13 -80 c7 -44 22 -107 34 -140z m3841 20
c-31 -161 -144 -303 -376 -470 -258 -186 -343 -298 -390 -520 l-13 -60 4 80
c7 143 65 277 165 382 25 27 109 95 185 152 187 139 247 193 306 271 62 82 95
164 111 277 l13 88 3 -70 c2 -38 -2 -97 -8 -130z m-908 117 c35 3 65 11 76 21
25 23 35 21 22 -3 -35 -65 -165 -66 -217 -2 -24 29 -13 31 25 6 31 -22 45 -25
94 -22z m573 -2 c39 0 61 6 89 25 31 21 35 22 26 6 -5 -11 -22 -29 -37 -41
-23 -18 -38 -21 -85 -18 -57 4 -88 21 -109 60 -7 14 -1 12 27 -7 28 -19 50
-25 89 -25z m-3724 -243 c-86 -484 -115 -761 -115 -1087 1 -238 11 -344 50
-495 23 -87 79 -203 126 -258 22 -26 38 -50 35 -53 -2 -3 -30 5 -60 16 -275
103 -339 630 -176 1445 46 232 164 674 176 661 2 -2 -14 -105 -36 -229z m3489
218 c47 -24 70 -62 70 -115 0 -137 -185 -180 -241 -56 -23 52 -24 73 -1 115
33 62 111 87 172 56z m763 -140 c54 -181 116 -447 151 -645 45 -254 59 -411
60 -635 0 -180 -4 -225 -23 -315 -41 -192 -124 -317 -238 -360 -30 -11 -58
-20 -64 -20 -6 0 8 21 31 47 82 94 142 257 172 468 18 127 15 513 -6 710 -22
213 -59 464 -101 696 -49 269 -48 274 18 54z m-2078 0 c16 -15 25 -36 25 -55
0 -19 -9 -40 -25 -55 -15 -16 -36 -25 -55 -25 -19 0 -40 9 -55 25 -16 15 -25
36 -25 55 0 19 9 40 25 55 15 16 36 25 55 25 19 0 40 -9 55 -25z m1258 -125
c33 0 61 7 83 21 42 26 44 10 3 -25 -25 -21 -41 -26 -84 -26 -46 0 -59 5 -90
31 -46 41 -45 55 1 24 27 -18 50 -25 87 -25z m-1334 -23 c13 -3 40 0 58 8 25
10 33 11 31 3 -3 -7 -18 -17 -34 -24 -34 -14 -94 1 -102 26 -4 12 -2 13 9 4 8
-6 25 -14 38 -17z m76 -162 c16 -15 25 -36 25 -55 0 -19 -9 -40 -25 -55 -15
-16 -36 -25 -55 -25 -19 0 -40 9 -55 25 -16 15 -25 36 -25 55 0 19 9 40 25 55
15 16 36 25 55 25 19 0 40 -9 55 -25z m-55 -155 c8 0 27 7 43 14 15 8 27 10
27 5 0 -6 -16 -17 -35 -25 -31 -12 -39 -12 -70 0 -19 8 -35 19 -35 25 0 5 12
3 28 -5 15 -7 34 -14 42 -14z m-545 -102 c61 -32 129 -103 158 -166 17 -36 22
-66 22 -127 0 -71 -4 -89 -33 -148 -84 -171 -283 -232 -455 -139 -57 31 -97
74 -134 145 -23 44 -27 65 -27 137 -1 102 22 161 87 228 75 77 140 103 252 98
62 -2 91 -8 130 -28z m1380 0 c61 -32 129 -103 158 -166 33 -71 31 -188 -4
-262 -37 -79 -78 -121 -154 -160 -58 -30 -76 -34 -143 -34 -134 1 -236 64
-294 182 -29 59 -33 76 -33 147 0 96 22 150 86 220 73 79 140 106 254 101 62
-2 91 -8 130 -28z"/>
<path d="M2974 4236 c-105 -47 -153 -179 -103 -283 92 -191 374 -140 396 71 8
74 -29 154 -89 194 -49 32 -153 41 -204 18z m194 -42 c32 -24 72 -98 72 -134
-1 -19 -5 -14 -20 24 -31 79 -70 110 -159 127 -44 8 -44 8 17 5 43 -1 71 -8
90 -22z m-228 -259 c32 -35 79 -55 127 -55 28 0 34 -3 23 -10 -39 -26 -132 7
-173 61 -14 19 -28 52 -31 74 l-7 40 18 -42 c10 -23 29 -54 43 -68z"/>
<path d="M1615 4143 c-46 -12 -55 -32 -55 -120 0 -76 -2 -86 -25 -108 -21 -22
-33 -25 -103 -25 -117 0 -127 -10 -127 -133 0 -124 3 -127 112 -127 80 0 86
-2 114 -29 28 -28 29 -34 29 -115 0 -109 8 -116 132 -116 117 0 128 10 128
115 0 125 21 145 149 145 102 0 106 5 106 127 0 123 -10 133 -127 133 -70 0
-82 3 -103 25 -23 22 -25 32 -25 108 0 109 -11 121 -113 124 -40 1 -81 -1 -92
-4z"/>
<path d="M2255 2866 c-52 -24 -102 -72 -132 -129 -13 -23 -18 -55 -18 -112 0
-69 4 -87 28 -130 34 -61 85 -104 152 -127 63 -22 97 -22 164 -2 106 31 191
146 191 258 0 194 -208 325 -385 242z m164 -22 c2 -2 -9 -4 -26 -4 -105 0
-200 -71 -233 -174 -15 -48 -19 -54 -19 -31 -2 103 75 195 179 215 32 6 89 2
99 -6z m176 -273 c-10 -63 -58 -126 -117 -155 -53 -27 -120 -34 -148 -16 -11
7 -3 10 30 10 98 0 195 76 221 173 13 49 23 42 14 -12z"/>
<path d="M3632 2864 c-133 -66 -190 -231 -124 -360 43 -85 152 -154 242 -154
56 0 132 31 177 73 57 52 84 105 90 177 15 158 -107 290 -267 290 -51 0 -78
-6 -118 -26z m233 -36 c66 -35 116 -119 114 -192 0 -28 -2 -26 -15 16 -8 26
-24 63 -35 82 -33 57 -122 105 -198 107 -36 1 -36 1 -6 8 39 9 102 -1 140 -21z
m-282 -331 c36 -48 118 -87 181 -88 45 0 48 -2 26 -10 -35 -15 -114 -4 -160
22 -63 35 -111 120 -109 189 0 18 6 10 18 -27 10 -29 30 -67 44 -86z"/>
</g>
</svg>
